<svg width="18" height="12" viewBox="0 0 18 12" fill="none" xmlns="http://www.w3.org/2000/svg">
<path fill-rule="evenodd" clip-rule="evenodd" d="M16.9412 0H15.8824C15.2976 0 14.8235 0.50368 14.8235 1.125V10.875C14.8235 11.4963 15.2976 12 15.8824 12H16.9412C17.5259 12 18 11.4963 18 10.875V1.125C18 0.50368 17.5259 0 16.9412 0ZM10.9412 2.625H12C12.5848 2.625 13.0588 3.12868 13.0588 3.75V10.875C13.0588 11.4963 12.5848 12 12 12H10.9412C10.3564 12 9.88233 11.4963 9.88233 10.875V3.75C9.88233 3.12868 10.3564 2.625 10.9412 2.625ZM7.05884 5.25H6.00002C5.41525 5.25 4.9412 5.75368 4.9412 6.375V10.875C4.9412 11.4963 5.41525 12 6.00002 12H7.05884C7.64362 12 8.11767 11.4963 8.11767 10.875V6.375C8.11767 5.75368 7.64362 5.25 7.05884 5.25ZM2.11765 7.5H1.05882C0.474051 7.5 0 8.00368 0 8.625V10.875C0 11.4963 0.474051 12 1.05882 12H2.11765C2.70242 12 3.17647 11.4963 3.17647 10.875V8.625C3.17647 8.00368 2.70242 7.5 2.11765 7.5Z" fill="#28292D"/>
</svg>
