<svg width="64" height="32" viewBox="0 0 64 32" fill="none" xmlns="http://www.w3.org/2000/svg">
<path d="M36.5001 23.72H24.5001V11.5H31.5001V9.5H24.5001C23.4001 9.5 22.5001 10.4 22.5001 11.5V23.5C22.5001 24.6 23.4001 25.5 24.5001 25.5H36.5001C37.6001 25.5 38.5001 24.6 38.5001 23.5V16.5H36.5001V23.72Z" fill="white"/>
<path d="M38.5001 6.5H36.5001V9.5H33.5001C33.5101 9.51 33.5001 11.5 33.5001 11.5H36.5001V14.49C36.5101 14.5 38.5001 14.49 38.5001 14.49V11.5H41.5001V9.5H38.5001V6.5Z" fill="white"/>
<path d="M34.5001 13.5H26.5001V15.5H34.5001V13.5Z" fill="white"/>
<path d="M26.5001 16.5V18.5H34.5001V16.5H26.5001Z" fill="white"/>
<path d="M34.5001 19.5H26.5001V21.5H34.5001V19.5Z" fill="white"/>
</svg>
