<svg width="70" height="12" viewBox="0 0 70 12" fill="none" xmlns="http://www.w3.org/2000/svg">
<path fill-rule="evenodd" clip-rule="evenodd" d="M16.9412 0H15.8824C15.2976 0 14.8235 0.50368 14.8235 1.125V10.875C14.8235 11.4963 15.2976 12 15.8824 12H16.9412C17.5259 12 18 11.4963 18 10.875V1.125C18 0.50368 17.5259 0 16.9412 0ZM10.9412 2.625H12C12.5848 2.625 13.0588 3.12868 13.0588 3.75V10.875C13.0588 11.4963 12.5848 12 12 12H10.9412C10.3564 12 9.88233 11.4963 9.88233 10.875V3.75C9.88233 3.12868 10.3564 2.625 10.9412 2.625ZM7.05884 5.25H6.00002C5.41525 5.25 4.9412 5.75368 4.9412 6.375V10.875C4.9412 11.4963 5.41525 12 6.00002 12H7.05884C7.64362 12 8.11767 11.4963 8.11767 10.875V6.375C8.11767 5.75368 7.64362 5.25 7.05884 5.25ZM2.11765 7.5H1.05882C0.474051 7.5 0 8.00368 0 8.625V10.875C0 11.4963 0.474051 12 1.05882 12H2.11765C2.70242 12 3.17647 11.4963 3.17647 10.875V8.625C3.17647 8.00368 2.70242 7.5 2.11765 7.5Z" fill="#28292D"/>
<path fill-rule="evenodd" clip-rule="evenodd" d="M32.0004 2.49216C34.3219 2.49226 36.5546 3.42402 38.2371 5.09485C38.3638 5.22384 38.5663 5.22222 38.691 5.0912L39.9021 3.81448C39.9653 3.74803 40.0005 3.65802 40 3.56436C39.9995 3.47071 39.9632 3.38114 39.8993 3.31546C35.4834 -1.10515 28.5168 -1.10515 24.1009 3.31546C24.0369 3.38109 24.0006 3.47063 24 3.56429C23.9994 3.65794 24.0346 3.74798 24.0977 3.81448L25.3091 5.0912C25.4338 5.22241 25.6365 5.22404 25.7631 5.09485C27.4458 3.42391 29.6787 2.49215 32.0004 2.49216ZM32.0004 6.64588C33.2759 6.6458 34.5059 7.14102 35.4514 8.03532C35.5792 8.16224 35.7807 8.15949 35.9053 8.02912L37.115 6.7524C37.1787 6.68543 37.2141 6.59458 37.2132 6.50018C37.2122 6.40578 37.1751 6.3157 37.1101 6.2501C34.231 3.45256 29.7723 3.45256 26.8932 6.2501C26.8281 6.3157 26.791 6.40582 26.7902 6.50026C26.7893 6.59469 26.8248 6.68553 26.8886 6.7524L28.098 8.02912C28.2226 8.15949 28.4241 8.16224 28.5519 8.03532C29.4968 7.14161 30.7258 6.64644 32.0004 6.64588ZM34.4236 9.44061C34.4255 9.53528 34.3898 9.62655 34.3251 9.69287L32.2327 11.8987C32.1713 11.9635 32.0877 12 32.0004 12C31.9132 12 31.8295 11.9635 31.7682 11.8987L29.6754 9.69287C29.6107 9.6265 29.5751 9.5352 29.5771 9.44053C29.579 9.34586 29.6182 9.25622 29.6855 9.19276C31.0218 8.0121 32.979 8.0121 34.3154 9.19276C34.3826 9.25627 34.4218 9.34594 34.4236 9.44061Z" fill="#28292D"/>
<path fill-rule="evenodd" clip-rule="evenodd" d="M48.6667 1H65.0367C65.9572 1 66.7034 1.74619 66.7034 2.66667V9.33333C66.7034 10.2538 65.9572 11 65.0367 11H48.6667C47.7462 11 47 10.2538 47 9.33333V2.66667C47 1.74619 47.7462 1 48.6667 1ZM46 2.66667C46 1.19391 47.1939 0 48.6667 0H65.0367C66.5094 0 67.7034 1.19391 67.7034 2.66667V9.33333C67.7034 10.8061 66.5094 12 65.0367 12H48.6667C47.1939 12 46 10.8061 46 9.33333V2.66667ZM70 6C70 6.9245 69.4838 7.75894 68.6899 8.11765V3.88235C69.4838 4.24106 70 5.07551 70 6Z" fill="#28292D"/>
<rect x="47.973" y="2.11765" width="17.7573" height="7.76471" rx="1.33333" fill="#28292D"/>
</svg>
