<svg width="64" height="32" viewBox="0 0 64 32" fill="none" xmlns="http://www.w3.org/2000/svg">
<g clip-path="url(#clip0_71_1662)">
<path d="M32.5 10C33.6 10 34.5 10.9 34.5 12C34.5 13.1 33.6 14 32.5 14C31.4 14 30.5 13.1 30.5 12C30.5 10.9 31.4 10 32.5 10ZM32.5 20C35.2 20 38.3 21.29 38.5 22H26.5C26.73 21.28 29.81 20 32.5 20ZM32.5 8C30.29 8 28.5 9.79 28.5 12C28.5 14.21 30.29 16 32.5 16C34.71 16 36.5 14.21 36.5 12C36.5 9.79 34.71 8 32.5 8ZM32.5 18C29.83 18 24.5 19.34 24.5 22V24H40.5V22C40.5 19.34 35.17 18 32.5 18Z" fill="white"/>
</g>
<defs>
<clipPath id="clip0_71_1662">
<rect width="24" height="24" fill="white" transform="translate(20 4)"/>
</clipPath>
</defs>
</svg>
