<svg width="101" height="100" viewBox="0 0 101 100" fill="none" xmlns="http://www.w3.org/2000/svg">
<path d="M50.1136 0C22.4509 0 0 22.4 0 50C0 77.6 22.4509 100 50.1136 100C77.7764 100 100.227 77.6 100.227 50C100.227 22.4 77.7764 0 50.1136 0ZM50.1136 15C58.4325 15 65.1477 21.7 65.1477 30C65.1477 38.3 58.4325 45 50.1136 45C41.7948 45 35.0795 38.3 35.0795 30C35.0795 21.7 41.7948 15 50.1136 15ZM50.1136 86C37.5852 86 26.5101 79.6 20.0455 69.9C20.1958 59.95 40.0909 54.5 50.1136 54.5C60.0863 54.5 80.0315 59.95 80.1818 69.9C73.7172 79.6 62.642 86 50.1136 86Z" fill="black"/>
</svg>
