<svg width="16" height="12" viewBox="0 0 16 12" fill="none" xmlns="http://www.w3.org/2000/svg">
<path fill-rule="evenodd" clip-rule="evenodd" d="M8.00044 2.49216C10.3219 2.49226 12.5546 3.42402 14.2371 5.09485C14.3638 5.22384 14.5663 5.22222 14.691 5.0912L15.9021 3.81448C15.9653 3.74803 16.0005 3.65802 16 3.56436C15.9995 3.47071 15.9632 3.38114 15.8993 3.31546C11.4834 -1.10515 4.51678 -1.10515 0.100859 3.31546C0.0368916 3.38109 0.000597157 3.47063 7.30289e-06 3.56429C-0.000582551 3.65794 0.0345808 3.74798 0.0977163 3.81448L1.30914 5.0912C1.43384 5.22241 1.6365 5.22404 1.76312 5.09485C3.44579 3.42391 5.67875 2.49215 8.00044 2.49216ZM8.00043 6.64588C9.27592 6.6458 10.5059 7.14102 11.4514 8.03532C11.5792 8.16224 11.7807 8.15949 11.9053 8.02912L13.115 6.7524C13.1787 6.68543 13.2141 6.59458 13.2132 6.50018C13.2122 6.40578 13.1751 6.3157 13.1101 6.2501C10.231 3.45256 5.7723 3.45256 2.89317 6.2501C2.82813 6.3157 2.79102 6.40582 2.79017 6.50026C2.78932 6.59469 2.82479 6.68553 2.88863 6.7524L4.09795 8.02912C4.22261 8.15949 4.42405 8.16224 4.55193 8.03532C5.49677 7.14161 6.72577 6.64644 8.00043 6.64588ZM10.4236 9.44061C10.4255 9.53528 10.3898 9.62655 10.3251 9.69287L8.23266 11.8987C8.17132 11.9635 8.08769 12 8.00043 12C7.91317 12 7.82954 11.9635 7.7682 11.8987L5.67536 9.69287C5.61071 9.6265 5.57514 9.5352 5.57706 9.44053C5.57898 9.34586 5.61821 9.25622 5.68549 9.19276C7.02183 8.0121 8.97903 8.0121 10.3154 9.19276C10.3826 9.25627 10.4218 9.34594 10.4236 9.44061Z" fill="#28292D"/>
</svg>
